Coordinates
version=1
nRows=8
nColumns=63
inDegrees=yes

Units are S.I. units (second, meters, Newtons, ...)
If the header above contains a line with 'inDegrees', this indicates whether rotational values are in degrees (yes) or radians (no).

endheader
time	pelvis_tilt	pelvis_list	pelvis_rotation	pelvis_tx	pelvis_ty	pelvis_tz	hip_flexion_r	hip_adduction_r	hip_rotation_r	knee_angle_r	knee_angle_r_beta	ankle_angle_r	subtalar_angle_r	mtp_angle_r	hip_flexion_l	hip_adduction_l	hip_rotation_l	knee_angle_l	knee_angle_l_beta	ankle_angle_l	subtalar_angle_l	mtp_angle_l	L5_S1_Flex_Ext	L5_S1_Lat_Bending	L5_S1_axial_rotation	L4_L5_Flex_Ext	L4_L5_Lat_Bending	L4_L5_axial_rotation	L3_L4_Flex_Ext	L3_L4_Lat_Bending	L3_L4_axial_rotation	L2_L3_Flex_Ext	L2_L3_Lat_Bending	L2_L3_axial_rotation	L1_L2_Flex_Ext	L1_L2_Lat_Bending	L1_L2_axial_rotation	L1_T12_Flex_Ext	L1_T12_Lat_Bending	L1_T12_axial_rotation	Abs_r3	Abs_r2	Abs_r1	Abs_t1	Abs_t2	neck_flexion	neck_bending	neck_rotation	arm_flex_r	arm_add_r	arm_rot_r	elbow_flex_r	pro_sup_r	wrist_flex_r	wrist_dev_r	arm_flex_l	arm_add_l	arm_rot_l	elbow_flex_l	pro_sup_l	wrist_flex_l	wrist_dev_l
2.933333	-4.598768	-4.824610	92.723495	0.178797	1.056861	0.128279	3.165723	-5.777751	-12.778486	9.257086	0.161567	37.419136	16.924066	0.000000	4.818475	7.483427	15.314667	6.809998	0.118857	27.525587	-17.513886	0.000000	-0.109945	-0.428976	-0.281806	-0.204178	-0.570538	-0.299419	-0.180628	-1.043012	-0.299419	-0.125656	-1.043012	-0.246580	-0.102095	-0.874767	-0.228967	-0.062822	-0.664483	-0.211354	-0.785324	-4.852660	-1.567320	0.000000	0.000000	25.666688	1.587612	5.939563	16.450102	-2.757854	137.425771	8.368224	2.892633	-3.898177	-13.592903	11.736133	-13.819025	67.651237	28.644335	84.767048	-10.955970	-5.638234
2.950000	-4.597967	-4.771052	92.710966	0.178509	1.056901	0.128040	3.067889	-5.778548	-12.564760	9.192654	0.160442	37.474847	16.907793	0.000000	4.797753	7.511471	15.264732	6.931500	0.120977	27.621478	-17.506908	0.000000	-0.112558	-0.421008	-0.274572	-0.209031	-0.559941	-0.291732	-0.184921	-1.023639	-0.291732	-0.128642	-1.023639	-0.240250	-0.104521	-0.858520	-0.223089	-0.064316	-0.652142	-0.205929	-0.803990	-4.762528	-1.527085	0.000000	0.000000	25.435547	1.417700	6.121821	16.566885	-2.934448	136.923381	8.748430	3.103248	-4.006167	-13.659423	11.764592	-13.788556	67.474650	28.761187	85.229964	-11.171644	-5.695564
2.966667	-4.572666	-4.704335	92.718281	0.178136	1.057022	0.127724	2.939550	-5.755965	-12.409849	9.095574	0.158748	37.507807	16.890257	0.000000	4.749766	7.516623	15.261112	7.029352	0.122685	27.729974	-17.505255	0.000000	-0.116151	-0.408031	-0.269378	-0.215704	-0.542681	-0.286214	-0.190825	-0.992086	-0.286214	-0.132749	-0.992086	-0.235705	-0.107858	-0.832056	-0.218869	-0.066369	-0.632040	-0.202033	-0.829655	-4.615726	-1.498197	0.000000	0.000000	25.156119	1.199332	6.372596	16.703917	-3.153525	136.116431	9.199519	3.319157	-4.064951	-13.759580	11.757168	-13.756854	67.378283	28.909502	85.641117	-11.278361	-5.691405
2.983333	-4.521323	-4.638455	92.770540	0.177663	1.057200	0.127403	2.800839	-5.713147	-12.376442	8.982327	0.156771	37.526593	16.898827	0.000000	4.701012	7.500440	15.331173	7.118926	0.124249	27.845598	-17.515429	0.000000	-0.120587	-0.390143	-0.271228	-0.223943	-0.518890	-0.288180	-0.198113	-0.948593	-0.288180	-0.137819	-0.948593	-0.237324	-0.111977	-0.795579	-0.220373	-0.068904	-0.604331	-0.203421	-0.861343	-4.413372	-1.508488	0.000000	0.000000	24.869963	0.948580	6.708501	16.848185	-3.386942	135.215156	9.642893	3.505975	-4.086792	-13.898497	11.719418	-13.728297	67.363318	29.080574	85.956930	-11.271176	-5.640207
3.000000	-4.449999	-4.585966	92.834152	0.177151	1.057400	0.127116	2.679816	-5.656043	-12.409069	8.867564	0.154768	37.532718	16.909595	0.000000	4.665957	7.466211	15.434119	7.198212	0.125632	27.959332	-17.535838	0.000000	-0.125026	-0.368392	-0.274275	-0.232186	-0.489961	-0.291417	-0.205406	-0.895707	-0.291417	-0.142892	-0.895707	-0.239991	-0.116099	-0.751224	-0.222849	-0.071440	-0.570639	-0.205706	-0.893050	-4.167319	-1.525437	0.000000	0.000000	24.605932	0.678670	7.122342	16.975669	-3.604790	134.571445	9.981443	3.639493	-4.138668	-14.027982	11.643951	-13.708307	67.362366	29.278174	86.180230	-11.134897	-5.531020
3.016667	-4.360552	-4.555891	92.908126	0.176604	1.057598	0.126897	2.589857	-5.587556	-12.515101	8.759680	0.152885	37.526701	16.941121	0.000000	4.656591	7.415770	15.551180	7.269797	0.126882	28.064512	-17.556622	0.000000	-0.128808	-0.343267	-0.278255	-0.239210	-0.456545	-0.295646	-0.211619	-0.834620	-0.295646	-0.147215	-0.834620	-0.243473	-0.119611	-0.699990	-0.226082	-0.073601	-0.531721	-0.208691	-0.920064	-3.883106	-1.547571	0.000000	0.000000	24.376452	0.386313	7.598658	17.067378	-3.793545	134.565751	10.147585	3.720298	-4.325557	-14.046052	11.551426	-13.694797	67.400993	29.488639	86.332576	-10.928157	-5.391090
3.033333	-4.276550	-4.551088	92.951424	0.176101	1.057766	0.126783	2.557617	-5.531631	-12.630329	8.692708	0.151716	37.528623	16.986044	0.000000	4.677086	7.367319	15.616345	7.331480	0.127958	28.146504	-17.570670	0.000000	-0.132420	-0.318413	-0.274226	-0.245917	-0.423489	-0.291365	-0.217553	-0.774189	-0.291365	-0.151343	-0.774189	-0.239947	-0.122965	-0.649307	-0.222808	-0.075665	-0.493221	-0.205669	-0.945864	-3.601949	-1.525161	0.000000	0.000000	24.198034	0.094846	8.095311	17.112161	-3.935839	135.365896	10.093889	3.770264	-4.654411	-13.915477	11.476076	-13.695592	67.530706	29.716586	86.425023	-10.785242	-5.220927
3.050000	-4.189664	-4.583386	92.990393	0.175637	1.057896	0.126778	2.579232	-5.476480	-12.783005	8.647713	0.150931	37.509676	17.057117	0.000000	4.736994	7.312495	15.673740	7.382649	0.128852	28.191962	-17.608536	0.000000	-0.133636	-0.293753	-0.266256	-0.248176	-0.390691	-0.282897	-0.219551	-0.714231	-0.282897	-0.152733	-0.714231	-0.232974	-0.124095	-0.599021	-0.216333	-0.076360	-0.455023	-0.199692	-0.954550	-3.322991	-1.480834	0.000000	0.000000	24.050413	-0.197908	8.598438	17.058901	-3.945982	137.994652	9.602816	3.700074	-5.295404	-13.621042	11.455345	-13.705980	67.784903	29.948553	86.565794	-10.763248	-5.064575
